<svg xmlns="http://www.w3.org/2000/svg" viewBox="0 0 887.28 624.76"><defs><style>.cls-1{opacity:0.89;}.cls-2{fill:#e64646;}.cls-3,.cls-5{fill:#fff;}.cls-4{fill:#e22b2b;}.cls-5{stroke:#e22b2b;}.cls-5,.cls-6,.cls-7{stroke-miterlimit:10;}.cls-5,.cls-6{stroke-width:4px;}.cls-6,.cls-7{fill:none;stroke:#8c1b1b;}.cls-7{stroke-width:2px;}</style></defs><g id="Camada_2" data-name="Camada 2"><g id="Camada_1-2" data-name="Camada 1"><g class="cls-1"><path class="cls-2" d="M41.3,214.39c-3.74.26-10.27,4.63-7,7.61l13.1-3.5Z" transform="translate(-26.41)"/><path class="cls-2" d="M32.39,250.52c7.94,1.39,20.56,1.38,30-7C48.8,245,53,241.5,37.12,243.76c-3.27-3,.46-8.41,5.11-10-3.69.25-.41-7.08-8.82-5.23-6.57,9.52-3.83,15.75,7,18.28C38.48,249.47,34.73,249.72,32.39,250.52Z" transform="translate(-26.41)"/><path class="cls-2" d="M143.78,371.11l-1.45,2.65A4.43,4.43,0,0,0,143.78,371.11Z" transform="translate(-26.41)"/><path class="cls-2" d="M161,297.64a3.1,3.1,0,0,0-3.51-1.88C158.84,297.22,160,298.38,161,297.64Z" transform="translate(-26.41)"/><path class="cls-2" d="M159.24,342.85a25.5,25.5,0,0,0,.14-2.68C158.49,341.45,158.12,342.57,159.24,342.85Z" transform="translate(-26.41)"/><path class="cls-2" d="M143.78,371.11l3.86-6.78C143.32,364.05,144.59,367.84,143.78,371.11Z" transform="translate(-26.41)"/><path class="cls-2" d="M86,287.29a9.57,9.57,0,0,0-4.75-1.92A24.55,24.55,0,0,1,84,288C84.67,287.72,85.25,287.51,86,287.29Z" transform="translate(-26.41)"/><path class="cls-2" d="M160.6,481.35l.09,2.1a46.09,46.09,0,0,0,5.43,1.58Z" transform="translate(-26.41)"/><path class="cls-2" d="M74.41,452.85c-.1,1.85,11,.22,16-.05-4.76-.11-7.2-1-8.39-2.39A41.9,41.9,0,0,0,74.41,452.85Z" transform="translate(-26.41)"/><path class="cls-2" d="M52.38,323.56,50,322.05C50.68,322.41,51.52,323.17,52.38,323.56Z" transform="translate(-26.41)"/><path class="cls-2" d="M159.75,419.75a16.76,16.76,0,0,0,4-1A11.68,11.68,0,0,0,159.75,419.75Z" transform="translate(-26.41)"/><path class="cls-2" d="M600.2,215.05c.79.13,1.31.08,2,.17C601.11,214.62,600.33,214.4,600.2,215.05Z" transform="translate(-26.41)"/><path class="cls-2" d="M664.36,122l.48,1.41c2.11.33,4.18.66,6.25.85Z" transform="translate(-26.41)"/><path class="cls-2" d="M167.79,422.08a1.79,1.79,0,0,0,.1-.4C166.08,420.07,166.63,421.13,167.79,422.08Z" transform="translate(-26.41)"/><path class="cls-2" d="M363.33,494.25c-.74-8.26-.23-12.3.75-14.69s2.45-3.09,3.78-4.21,2.57-2.85,3.15-6.55.52-9.42-.43-18.83a23.38,23.38,0,0,1-1.92,7.44c-1,2.55-2.36,5.17-3.57,8.21C362.69,471.75,360.65,479.33,363.33,494.25Z" transform="translate(-26.41)"/><path class="cls-2" d="M85.59,290a19,19,0,0,1,1.58,3.23A5.31,5.31,0,0,0,85.59,290Z" transform="translate(-26.41)"/><path class="cls-2" d="M370.58,450l0-.19-.41-3.65C370.36,447.72,370.45,448.61,370.58,450Z" transform="translate(-26.41)"/><path class="cls-2" d="M227.08,596.89A14.74,14.74,0,0,0,228.5,593l.26-1.13c.09-.35.12-.9.31-.93l.89-.84a7.17,7.17,0,0,0-1.8,1l-.26.19-.13.11s-.05,0-.07.07l0,.15c-.1.42-.19.89-.27,1.42A28.08,28.08,0,0,0,227.08,596.89Z" transform="translate(-26.41)"/><path class="cls-2" d="M202.73,459.73l-.49,3.62A6.73,6.73,0,0,0,202.73,459.73Z" transform="translate(-26.41)"/><path class="cls-2" d="M326,541.11c1-1.8,2.55-2.34,1.18-4.93a5.79,5.79,0,0,0-1.41.68C327.29,537.86,327.93,539.11,326,541.11Z" transform="translate(-26.41)"/><path class="cls-2" d="M328.74,467.13a22.91,22.91,0,0,0-2.29,1.33c.21.73.37,1.59.56,2.35Z" transform="translate(-26.41)"/><path class="cls-2" d="M594,335.45l7.86,20.77c-1.54-4.17-2.79-8-3.81-11.11l-2.4-7.54C594.43,333.92,594,333,594,335.45Z" transform="translate(-26.41)"/><path class="cls-2" d="M80.25,290c2.76-.79,4.31-.81,5.34,0a16.5,16.5,0,0,0-1.6-2A7.76,7.76,0,0,0,80.25,290Z" transform="translate(-26.41)"/><path class="cls-2" d="M237.64,533.09,239.91,522A35.64,35.64,0,0,0,237.64,533.09Z" transform="translate(-26.41)"/><path class="cls-2" d="M477.24,157.15a62.41,62.41,0,0,1,13.52,1C486.22,156.49,481.12,156.06,477.24,157.15Z" transform="translate(-26.41)"/><path class="cls-2" d="M239.56,488.78a19.73,19.73,0,0,0,8-6.09,10.51,10.51,0,0,0-2.87-1.38Z" transform="translate(-26.41)"/><path class="cls-2" d="M601.94,356.47l-.09-.25Z" transform="translate(-26.41)"/><path class="cls-2" d="M581.7,298.24l7.38,8.95,6.84,8.18c2.32,2.78,4.6,5.51,6.49,8,.81,2.36.58,3-.31,2.33a32.38,32.38,0,0,1-4.31-5.11l-12.12-16.5c1.7,2.75,5.47,9.09,8.66,15.35s5.84,12.27,5.46,12.89c-2.08-3.64-2.87-4.77-5.4-9.94a57.68,57.68,0,0,1,4.12,10.85,22.78,22.78,0,0,1,.6,5.42,32.39,32.39,0,0,0,.92,7c.78,3.59,2.21,9,4.81,18-1.06-2.42-2-4.91-2.9-7.21,5.77,15.15,11.6,30.69,15.66,42.3-.21,2,1.26,8.8,1.81,12.75s.22,4.91-3.45-5.47c.59-1.56-2.27-10.51-4.38-18.07q1.29,6.25,2.53,12.85c-2.69-7.18-4.2-11.87-5.07-15a37.62,37.62,0,0,1-1.31-6.36c-.33-3-.28-5.24-4.16-16.44.83,4.39,1.69,9,2.57,13.57.93,5.18,1.89,10.78,2.63,15.89s1.27,9.72,1.37,12.74-.27,4.44-1.2,3.08c-2.32-8.71-3.51-14.5-4.18-18.54a83.48,83.48,0,0,1-.94-8.46,34.09,34.09,0,0,0-1-6.65c-.71-2.83-2-6.61-4.28-13.2a59.59,59.59,0,0,0,4.71,7.53c-4.11-11.5-6-17.57-6.86-20.49s-.72-2.9-.59-3,.23-.28-.79-3.61-3.18-9.69-7.4-22.85c-.73-1.59-.89-1.63-.77-.63s.55,3,1,5.27c.89,4.51,1.9,10.23,1.24,9.9a8.16,8.16,0,0,1-.67-1.47c2.22,11.13,3.9,19.2,5.63,27.11s3.48,15.74,5.55,27.43c.68,6.2.79,9.61.55,10.7s-.92-.11-1.75-2.94c-1.68-5.63-4.13-17.76-6.39-29.86s-4.3-24.12-5.29-29.35c-.49-2.61-.7-3.52-.57-1.78s.63,6.12,1.49,14.23c1.87,15.81,4.62,38.83,6,54.8.7,8,1.07,14.23.89,16.84s-.9,1.57-2.23-5.36Q589.87,385,587.17,357c-.49-.47-.28,4.42.1,11.72.66,11.34,1.07,18.42,1.49,25.65.49,8.71.84,16.51.68,20.13s-.83,3.11-2.24-5.49c-.38-12.45-.17-18.37-.05-22a37.93,37.93,0,0,0-.11-8.1c-1.21-10.77-1.61-14.18-1.7-12.88s.15,7.21.45,14.68c.63,14.9,1.49,36,.61,37.69q-1.41-27-2.66-54.22c-.21,1.52-.31,3.66-.75,6s-1,4.65-1.61,7.07c-1.18,4.83-2.46,10-3.3,14.59-.43,2.3-.6,4.44-.87,6.44s-.52,3.79-.78,5.31c-.54,3.05-1.08,4.95-1.58,5.05.35-5.68,1.07-17.25,1.34-21.48.42-7.41.79-15.2,1.09-23.26-.62,4.5-1.15,5.1-1.5,3.33a71.94,71.94,0,0,1-.57-11.12c0-5.22.18-11.5.56-17.85s.93-12.8,1.59-18.6q-2.49,14.24-5.3,27c0-.47.48-3.9,1.16-7.76s1.51-8.2,2-10.69c.4-3.05.4-3.42.13-2.22s-.82,4-1.48,7.53c-1.33,7-3.08,17-4.28,21.59-.4,0,.24-4.42,1.24-9.59s2.33-11.18,3.22-14.82a70.31,70.31,0,0,1-4.39,12.15c-1.51,3-3.08,4.75-4.32,4.81-2.45.18-3.8-6.37-.28-17.8q1.3-1.85,2.57-3.85c.56-2.6-.2-2-1.65-.22s-3.57,4.68-5.61,7.15-4,4.52-5,4.73-1.21-1.4.48-5.68q.93-.54,1.83-1.14a33.81,33.81,0,0,0-1.23-10.68c-.8-3-1.93-5.86-2.67-8.87a24.22,24.22,0,0,1-.73-4.51,9.14,9.14,0,0,1,0-1v-.2l0-.15-.09-.6-.14-1.19c-.18-1.6-.3-3.19-.35-4.78A42.58,42.58,0,0,1,556,279.89c-8.68.49-8.78-6.48-9.62-13s-2.49-12.47-14-9.83c6.62-18.27,11.92-15.26,12.77-38.61-.79-5.92-16.73-3.76-21.31-9.83l11.66-4L527.8,202,524,200.66l-.24-.08-.36-.43-.75-.88c-.5-.58-1-1.15-1.52-1.7-1.06-1.1-2.12-2.15-3.23-3.12a54.47,54.47,0,0,0-.38-24.58,64.45,64.45,0,0,0-26.72-11.75A27.81,27.81,0,0,1,504,167.85c2.53,3.65,3,6.79,1.32,7.73A93.18,93.18,0,0,0,492,169.44a69.76,69.76,0,0,0-7.94-2.37l-2.23-.46c-.74-.14-1.5-.27-2.32-.39s-1.61-.21-2.42-.3-1.73-.14-2.6-.19l-1.32,0h-1.4c-1,0-1.86,0-2.85.09a47.92,47.92,0,0,0-6.22.82,45.85,45.85,0,0,0-6.68,1.87,45.35,45.35,0,0,0-6.93,3.22,46.3,46.3,0,0,0-6.57,4.53,48.3,48.3,0,0,0-5.67,5.58,49.91,49.91,0,0,0-4.46,6c-.68,1.07-1.19,2-1.74,3s-1.05,2-1.5,3-.82,1.83-1.2,2.75-.75,1.9-1,2.68-.57,1.66-.83,2.49c-.13.41-.25.83-.38,1.24l-.09.31c0,.13,0,.07-.06.11l-.11.1c-.56.53-1.14,1-1.72,1.51a27.38,27.38,0,0,1-3.52,2.45c-2.32,1.35-4.5,2.08-6.07,2l3.61,13.1,3.71,13c-4.86-1.13-6.06-5.49-8.81-9.17,10.92,14.78-13.19.9-3.17,14.45,3-1.32,7.19,1.72,9.64,2.28-8.06,5.22-9.72,19.09-7.6,29.65l-8.26-2.84a81.78,81.78,0,0,0-1.72,14.24c-.05,1.23-.08,2.46-.09,3.7v2.79c0,.28,0,.75,0,.67l.77,1.13a15.39,15.39,0,0,1,1.61,2.94,6.83,6.83,0,0,1,.59,3.16A69.83,69.83,0,0,1,415,304.26a42.61,42.61,0,0,1,5.56,4.27,10.14,10.14,0,0,1,2.87,3.79q-6.18-3.87-12.33-8.22c3.73,3.53,4.92,4,6.32,4.57a9.77,9.77,0,0,1,2.6,1.63,35.3,35.3,0,0,1,4.89,5.34c-.87,1.47-4.37-1-8.13-4.47s-7.81-7.55-9.76-9.62a68.31,68.31,0,0,1,4,6.18c-3.61-3.4-5.48-5.79-10.08-10.13,1.87,1.87,2,2.33,1.43,2a21.18,21.18,0,0,1-3.12-2.53c-1.18-1.07-2.17-2.12-2.07-1.87s1.28,1.86,4.45,6.28l-3.51-4.61c-.08.59.47,2,1.19,3.88s1.61,4.31,2.22,6.51a18.16,18.16,0,0,1,.69,3.11c4.84,10.84,6.7,15.51,8.31,20s3,8.84,6.79,19.49c-1.65-1.07-4.38-5.49-6.61-9.48-1.11-2-2.08-3.78-2.74-4.75s-1-1.08-.84.52c2.27,9,4.22,16.22,6.29,23.32s4.27,14.27,7,25c-4.22-14.36-6.17-19.45-7.81-24.27-.81-2.39-1.55-4.68-2.46-7.9s-2-7.39-3.47-13.36c.61,4.74,1,7.85,2.05,14.07.66,3.83,1.36,7.85,2.19,12.63,1,5.57,2.23,12.75,3.87,22.69,3.41,14.47,4.9,19.48,7.71,32.88.64,4.2-.18,1.65-1.83-4.51s-4.14-15.93-6-25.28c-.2-1.44-.43-2.89-.67-4.34a41.58,41.58,0,0,1,.45,9.76c-.26,2.26-.82,3.48-1.46,3.83-1.29.7-2.9-1.93-4.25-6.38a79.07,79.07,0,0,1-1.87-7.88c-.58-3-1.18-6.17-1.78-9.5-1.21-6.66-2.42-13.79-3.51-20.48-2.2-13.41-3.83-24.9-4.55-29s-.64-1.15,0,13l-.11-2.77a188.41,188.41,0,0,1-1,24c-.89-4.17-.74-8.39-.71-14.27,0-2.93,0-6.27-.11-10s-.32-7.94-.6-12.36c-.11,9.9-.74,13.15-1.32,13.59s-1.18-2.07-1.64-4.68-.82-5.45-1.31-6.45-1.13-.27-2.5,3.46c1.38-14.83,2.16-21.76,2.33-25s-.32-2.84-1.2-2.49-2.09.81-2.5-.43.08-3.9,3.34-8.26q-2.51,3-5,6.11c-2.67,2.49-2.16,1.2-.71-.62s3.75-4.37,4.3-5.1a40.87,40.87,0,0,0-4.21,4.53,14.82,14.82,0,0,1-3.41,3.32,7.22,7.22,0,0,1-3.51-2.7,6.89,6.89,0,0,1-.63-1l-.29-.51,0-.07-.1-.21-.22-.45-.44-.92c-1.15-2.45-2.23-4.93-3.26-7.46a239,239,0,0,1-10-31.54c-1.37-5.42-2.63-10.89-3.86-16.37l-.91-4.12-.46-2.06-.22-1,0-.13,0-.06-.1-.25-.5-1.12c-.33-.75-.68-1.49-1-2.22a69,69,0,0,0-31.27-31.49,67.1,67.1,0,0,0-42.92-5.81A66,66,0,0,0,245.53,213a67.45,67.45,0,0,0-6.9,8.67c-1,1.51-2,3.11-2.84,4.64s-1.65,3.1-2.39,4.69a69.85,69.85,0,0,0-5.47,17.94c-.22,1.36-.42,2.83-.55,4.11s-.23,2.52-.29,3.78l-.08,1.9,0,1.72c0,1.13,0,2.27.07,3.4l0,.85,0,.42v.16l0,.25-.06.5-.12,1-.23,2-.42,4c-.26,2.67-.48,5.32-.65,8-.27,7.7,9,9.14,16.53,11.26s13.2,4.95,5.4,15.3L234,303a66.28,66.28,0,0,1,8.35,23,156.68,156.68,0,0,1,1.8,23.69c.13,7.92.21,15.81,1,23.61a83.17,83.17,0,0,0,2.08,11.61,61.86,61.86,0,0,0,4,11.43c-3.09-1.75-7.06-1.71-7.08-4.68-4.73,3.33-4.68,9.24-2.54,14.35s6.42,9.42,10.34,9.44c-.84,4.76-7.08,1.17-11,4.13-2.78,3.24.28,7.24,2.86,10.9s4.68,7-.09,8.66c-1.56.58-3.12-1.81-3.86-3,4.71,4.2-1.3,19.51,9.82,15.59-5.35,11.35,4.58,22-2.16,31,6.09,3.14,4.44,8,3.45,12.37s-1.32,8.22,7.37,9.52c-18.06-1.49-15.4,19.34-7.38,27.06-5.33-2.71-6,6-13.41,2.69-.08,4.11.57,8.08,2.41,10.93s4.9,4.59,9.59,4.18c-5.66,3.44-7.51,7.11-7.59,10.81s1.6,7.44,3.13,11a38.15,38.15,0,0,1,1.91,5.11,12.07,12.07,0,0,1,.39,2.37v.18h0l33.06,2.77h.15l.48,0c.32,0,.65.1,1,.16a5.43,5.43,0,0,1,.76.16l.38.11.29.08a4.41,4.41,0,0,1,.56.23,2.2,2.2,0,0,1,.39.17l.29.17a1,1,0,0,1,.21.15c.19.15.07.09,0-.09a6,6,0,0,1-.68-2.92,11.37,11.37,0,0,1,.83-4.51,6,6,0,0,1,.8-1.42.79.79,0,0,1-.17.13l0,0h0l.11,0h0L317,564.83l-.05-.06-.08-.12-.35-.5Q311,556.29,306,548.54c-6.62-10.35-12.49-20.59-17.75-30.84,17.53-4.36,8.86,23.49,26.74,17.15-13.25-18.48-31.63-25.94-33.53-47.61.78-6,8.39.78,11.88,1.68-13.25-18.45-10.27-40.25-25.13-55.76,1.62-.43,4,1,5.84,2.5-1.64-3.44,0-9.14-7.69-6.4l3.17,2.88c-9.69,9.16-28.09-7.24-34.31-6.09,24.35-.58.28-19.77,31.65-18.51A11.56,11.56,0,0,0,255,405.85c.49-4,3.23-6,10.27-4.22-8.12-11.66-15.11-4.58-18.42-16.34,3.82-1.09,6,.83,10.83.71-9.19-3.72-18.39-7.47-18.11-18.32,2.47-.09,5.12-2.12,5.94.85-6.21-16.66-28.38-23.09-26.76-43.87,18.17.58,3.55-8,17.57-13.21L229,302.7l-5.75,6.09c-2.37-8.86-15.11-13.52-12.67-22.46l7.84,4.77-7.61-15.65-2.65,10.93c-10-6.69-17.83,6.34-17.32-6.53,2.14,1.94-2.44-8.84,4.63-15.93,0,0,0,0,.05,0-5.85-3-12-6-10.36-13.58,4.07-3.05,16.23-3.36,19-5.36-13.23-.73-9.44-19.58-23.8-21.21,3.53.91,11.08-1.23,12.42-2.28l-10.78-.7c.32-.39.25-1.8.3-2.72s.07-1.89.06-2.69a13.11,13.11,0,0,1,.45-3.92c.61-2,2.2-3.15,5.41-3.92a27.11,27.11,0,0,0-3.36-4.93,17.06,17.06,0,0,0-3.1-2.9c-1.9-1.35-3.3-1.69-4.3-1.47-2,.44-2.33,2.91-3,4.93s-1.45,3.73-3.12,3.3a4.62,4.62,0,0,1-1.49-.68c-.29-.19-.6-.41-.94-.67s-.74-.52-1.16-.85l-1.4-1.08L164.59,202a22.29,22.29,0,0,0-2.25-1.41l-1.34-.75c-.48-.26-1-.48-1.58-.73a7.07,7.07,0,0,0,3-.95c.94-.39,2.44-.84,5.63-.14a27.2,27.2,0,0,0-15.67-4.24,24.66,24.66,0,0,0-4.85.61c-.83.18-1.66.4-2.47.63s-1.68.61-2.5.95-1.63.73-2.42,1.15-1.56.94-2.32,1.45a24.19,24.19,0,0,0-4.11,3.47c-.32.31-.62.64-.92,1l-.44.5-.15.19-.56.78L130.57,206c-.73,1.06-1.32,2.15-1.94,3.23a62.15,62.15,0,0,0-3.08,6.54c-1.77,4.35-3.08,8.58-4.57,12.54a47.26,47.26,0,0,1-5.55,11.13c-3.93,0-5.87-.89-6.73-2.29s-.61-3.31-.3-5.16.79-3.71.31-5-1.94-2.17-5.5-1.86a66.42,66.42,0,0,0-2.31,19.83,152.6,152.6,0,0,0,1.85,18.84c1.78,12.07,3.73,23.05,1.35,33.2l1.89-3.72c10.5,2.15,7.64,5.62,3.41,10.13s-9.8,10.08-4.88,15.28c-1.54-2.51-11.72-3.52-9.37-2.78-1.84,7-.54,14.21,2.13,22.12s6.74,16.57,10.49,26.68l-5.55-2.33c-4.56,8.22-1.86,21.19-3.84,29.9,5.57,2.24,5,7.18,12.71,3.75-14.72,14.09-9.76,26.38-4.23,38.14s11.68,23.22-.7,35.29c-.19-2.73-5.08-6.28-5-4.1q3,9.58,5.81,19.16c9.18-1.85,5.52-2.72,12.54-7.11,5.58,2.26,10,7.69,10.16,12.6-6.39-8.7-14.82.54-19.9,4.35a8.69,8.69,0,0,1,2.17-.21c.36,0,.73,0,1.11.05l.56.06h.24l6.37-.14h.07a2.69,2.69,0,0,1,.55,0,6.42,6.42,0,0,1,.88,0l.43,0,.34,0a7.38,7.38,0,0,1,1.23.19,4.68,4.68,0,0,1,.84.2l.31.1.25.09a2.65,2.65,0,0,1,.79.43c.08.07,0,0,0,0l0,0a1.26,1.26,0,0,1-.14-.19,2.31,2.31,0,0,1-.25-.46l-.05-.11,0,0s0-.09,0,0,.2.52.27.77a3.84,3.84,0,0,1,.11,1.36,1.16,1.16,0,0,1-1.47,1.06,3.54,3.54,0,0,1-2.15-2.79,43.06,43.06,0,0,0,2.16-4.36,8,8,0,0,1-5.68,2,4.51,4.51,0,0,1-3-1.38,3.34,3.34,0,0,1-.74-1.42,6.66,6.66,0,0,1-.11-2.07c5.14-1.87,6.58-.55,7.82,1a3.51,3.51,0,0,0,.79,0c.14,0,.29-.06.45-.1l.13,0,.1,0,.07,0c-.23.11-.2.08-.1.06l.2,0,2.75-.37-.33-.34c-.44-.46-.92-.91-1.43-1.36-2-1.79-4.46-3.48-6.54-5.17-4.17-3.4-6.89-6.75-2.16-11.22,3.44,2.95,4.17,7.9,7.59,10.95,5.65-4.87,7.65-7.52,8.37-9.68A10.1,10.1,0,0,0,133,468a25.92,25.92,0,0,1,.19-3.91l-.18.64,3.11-15-2.71,4.21a45.61,45.61,0,0,1-8.8-2.36,19,19,0,0,1-5.27-3c-2.58-2.2-3.48-4.78-4.1-7.54s-1-5.69-2.49-8.51-4.32-5.49-9.57-7.68c10,4.34,12.57,4.39,14.13,3s2.11-4.18,8.12-5.12c2.4-4.29,4.7-10.63,8.38-9.95-2.78-1-3.85-2.35-4.22-3.83a13.35,13.35,0,0,1,.24-4.83c.45-3.4.24-7.07-7.91-9.61,3.66-1.54-1.73-7,8.09-8.39-5.58-7.5-5.86,4-10.77,4.68a11.7,11.7,0,0,1-6.49-9.32,33,33,0,0,1-.22-6.19c0-2.17.21-4.43.31-6.74.19-4.59.24-9.4-1.37-13.71s-4.8-8.2-10.75-11c-6.48-6.29-13.14-8.78-19.52-11.16s-12.74-4.49-18.62-10c1.88-3.53,5.53-4,8.73-3.61a21.65,21.65,0,0,1,5.92,1.73c2.12-9.78-1.48-15-8.67-20.11,3.73,0,5.7-2.65,8.7-6.63-3.54-5.19-14.62,2.26-12.86-7.52,4.52-.6,11.58-1.95,16.81-1.08A73.61,73.61,0,0,0,70,278.54a70.45,70.45,0,0,1-11.29-6.82c5.23-4.78,11.26-.45,16.42,0-3.24-3.16-7-7.43-11.36-10.59s-9.26-5.15-14.64-3.89l-1,6.52c-1.84-2.49,7.56-5.54,10.34-4.39,5.4,1.34,5.71,4.12,4.26,6.79a20.37,20.37,0,0,1-6.34,6.29L51.8,268.8c-9.06,7.52-5.93,11.84-.06,15.63s14.34,7.16,16,12.3l-17,3,8.57,2,8.53,2.13c-3,3.93-10.81,9.16-15.21,5.45-4.39,10.25,8.16,3.69,2.44,13.33-1,1.23-1.89,1.26-2.75.91l7.44,4.79c-3.78.06-10.32,5.76-9.87.68-.92,4-.15,6.83,1.38,9.08a23.06,23.06,0,0,0,5.87,5.32c4.13,2.89,7.55,5.06,2.61,9.66l-1.36-.63a28,28,0,0,0,4,4.13,9,9,0,0,0,3.18,1.8c2,.56,3.67,0,5.58-.81,3.83-1.58,8.44-4.18,17.62-.13-8.33,6.47-16.59,12.79-25.1,19l12.09-2.42c.21,1.93.56,5.75-4.28,6.69,10.2,3.88,4.63-2.87,13.43-1.57-3.7,6.09-.63,11.64,1.25,16.71.93,2.54,1.57,4.94.8,7.18s-2.94,4.31-7.48,6.16c9.81.54,4.51-10.38,13.36-2.84-9.67,4.26-8.07,6.64-4.89,9.37,1.57,1.37,3.6,2.81,4.69,4.6s1.33,3.88-.5,6.48c-11.09.17-7.39-8.65-14.77,1.62,9.43.09,9.44,4.26,7.68,9-.84,2.35-2.28,4.88-3.12,7.16s-1.17,4.33,0,5.8c7.12-1.35,9.46,2,10.73,7s1.47,11.59,4.79,16.92c-2.45,0-3.68,5.71-4.76,12.71-.13.87-.26,1.76-.4,2.67-.07.46-.13.92-.2,1.37l-.1.7a3.51,3.51,0,0,0,0,1.1,32.94,32.94,0,0,0,1.23,7.72,34.78,34.78,0,0,0,3,7.25A38.83,38.83,0,0,0,105.53,519a41.77,41.77,0,0,0,11.37,6.71q-.75,1.08-1.56,2.13a15.88,15.88,0,0,1,2.13-2.13A22.25,22.25,0,0,1,120,524c.89-.54,1.89-1.07,2.88-1.55s2.12-1,3.26-1.49A71.76,71.76,0,0,0,134,517c.75-.46,1.45-.89,2.21-1.44s1.49-1.11,2.23-1.75a28.07,28.07,0,0,0,2.14-2.09,26.41,26.41,0,0,0,1.94-2.4,27.26,27.26,0,0,0,1.6-2.61,28,28,0,0,0,1.2-2.71c.3-.88.59-1.8.8-2.67s.33-1.69.45-2.54.12-1.55.15-2.32a20.92,20.92,0,0,0-.06-2.12l0-.52a2.37,2.37,0,0,0,0-.41l-.09-.43-.17-.86a37.61,37.61,0,0,0-1.74-6.68c8.81.07,12.33,1.46,16.38,6l-.3-8.06c-4.77-1.74-7.33-4.14-9.22-9.22l11.05,1.56c-1-10.68-13.89-20.66-7.37-34.51-10.27-.12-27.84,12.28-35.5-1.4,5.49-.85,14.92-1.95,17.4,1.62-.78-1.17-4.85-4-2.64-6.63l9.64,5.09c3.72-6.34-8-2.72-7.39-7.63,7.89-.39,5.4-3.95,11.7-3.64.84,1.2-3,4.45.22,6.13,1.07-5.59,5.34-12.51,11.17-15.07-4.46.76-10.62.66-11.89-3.28-1.22-10.31,9.26-4.14,12.94-10.4-5.63-2.17-.34-9.07-12.14-8.55-.12-3,5.35-3.89,8.48-5.23-5.54-5-2.8-24.64-15-18.07l-.76,1.41c-.26-.25-.28-.55-.56-.85v0c-6.28-8.43-5-17.63-2.72-26.68s5.51-18,3.06-26.46l3.95.07c-2.21-5.06-2.74-10.68-3.69-15.95s-2.29-10.19-6.24-14.13c.12-1.5,2.08-3.1,4.56-4.09a11.6,11.6,0,0,1,7.81-.51c-1.12-3.83-2.71-6.1-3-8.64s.57-5.4,4.69-9.92c2.76,4.13,4.41,3.74,5,3.56.28-.09.31-.15.1.4a35.42,35.42,0,0,0-1.27,4.09c2.35-4.34,5.25-6.55,6.42-9.09s.65-5.33-3.34-11.15c4.47,2.86,7.94,2.11,10.06.5s2.94-4.21,2.15-6.24a58.89,58.89,0,0,0-8.58,2.32c0-4.51,2.21-7.52,4.42-9.92q5.52,3.85,11.21,7.32c4.83-.65,5.83-1.52,5.36-3.25a5.73,5.73,0,0,0-.23-.64l-.16-.37v0h0L154,222.62h0l0,0-.1-.08c-.2-.26-.05-.06-.1-.12a2,2,0,0,1,.12.25l0,.12.08.23a1.94,1.94,0,0,1,.08.45,3.3,3.3,0,0,1,.08.61,6.85,6.85,0,0,1-.05,1.27,6.58,6.58,0,0,1-.25,1.25,7.36,7.36,0,0,1-.35,1,3.45,3.45,0,0,1-.94,1.43l-.06,0-.1.05-.2.08-.12,0h0c-31.51,9.37-8.73,2.6-15.76,4.7h0l0,.05.06.18.13.38c1.23,4,.15,8.6-5.2,14.4,10.53,2.73,3-12.91,14.86-11.2,1.07,9.86-14.34,25-13.51,28C129.36,280.63,154.8,272.13,154,287c4-3.07,15.7-8.3,23,.44,1.1,9.86-15.67,17.18-21.07,12.36-1.05-2.13.06-3.64,1.64-4-2.56-2.52-5.69-5.91-9.52-.74l4.91-.14c-3.26,6,1.06,18.75-7.31,17.95,6.45,5.78,8.37.8,9.17-5.14-3,14,5.38,18.81,4.63,32.48,1.93-2.71,6.73-6.11,7.27-4.14-.25,19.8,11,5.41,16.65,17.1-4.86,9-17.3,2.43-7.81,13.06-2.45,8.94-11.6,5.19-16.2,3.29,12.12,8.65.49,22.76.8,29.67l-5.44-4.84c3.24,2.9,4,5.82,4.89,8.79l8.1-6.1c-.55,3.95.28,6.92-3.51,8,7,1.81,14.31-7.25,24.58-2.56-3.24,6,9.17,12.66-2.42,17.86-.25-15.82-11.65,5.22-17.28-6.56,2.15,2,3,4.88,2.4,8.85-1.19.93-2.65.25-3.62-.49-6.64,17.18,15.56,2.35,19.59,16.92-7.35.19-11.91,7.2-9.75,9.13-1.6-5.88,10.52-6.17,17.33-2.37-2.54,10.86,6.94,8.92,7.77,14l.85-6.3c7.35-.14,7.85,4.77,11.91,10.6-5.13,2.13-5.39-4.79-7-1.78,14.1,3.62-7.55,19.92,3.49,27.54-3.23,6-12.65,4.26-14.56,9.26,12.17,8.61-5.71,14.94,5.1,24.58,8.13-6.13,5.72-6.06,17.11-.4l-12.21-17.49,17,8.5c-1.61-5.9-9.43-10.65-8.91-14.62,9.22,3.71,6.77,3.78,13.53-1.28-11.34,12.09,12.72,13.51,6.21,25.53l-22.74,6.46c-5.94,16.93,19,21.28,18.67,41.06l2.21-7c9.73-.25,4.58,10.79,10,15.56-7.73,1.71-9.39,6.19-13.36,10.09a2.27,2.27,0,0,1,1.76,0c.07.05.12,0,.2.13l.31.53c.21.37.43.77.66,1.21l1.52,3A56.46,56.46,0,0,0,245,609.69a39.45,39.45,0,0,0,7.92,6,29.08,29.08,0,0,0,8.62,3.29c5.66,1.15,10.81-.1,13.15-3.58a32.11,32.11,0,0,0,7.29,3.77c.74.25,1.49.49,2.26.71.39.11.76.22,1.17.32l1.26.26c.86.16,1.69.32,2.61.42s1.89.16,2.85.2A36,36,0,0,0,305.33,619a33.49,33.49,0,0,0,3.58-1.48,38.91,38.91,0,0,0,3.54-1.88c1.16-.71,2.31-1.47,3.42-2.28s2.16-1.69,3.2-2.61a41.77,41.77,0,0,0,5.77-8.5c.36-.7.72-1.43,1-2.12s.55-1.31.81-2,.49-1.32.71-2l.32-1,.25-.89c.32-1.18.6-2.36.83-3.54s.33-2.08.45-3.12c0-.51.09-1,.14-1.52l0-.34v-.23a6,6,0,0,0-.06-.61,11.17,11.17,0,0,0-1.59-4.46c-1.66-2.77-4.34-5.19-7.07-7.58-5.46-4.78-11.13-9.44-9.32-16.73,8.27,5.06,14.3-1.34,19.76,9.09.41-5,2.15-9.38-3.31-9.82,2.57-1.29.14-4.92-1.95-8.72s-3.93-7.76-.05-9.84c-3.35-2.29-11.57-3.42-10.61-8.93a7.63,7.63,0,0,1,3.9.23c-2-.12-3.16-2.36-5-4s-4.36-2.73-8.83-.53c12.61-7,12.73-17.7,12.13-28.12s-1.65-20.57,9.07-27C325.27,463,324,457,323,451.17s-1.74-11.56-2-16.47c2.36.63,3.93,0,3.12,1.89,7.3-13.6-22.61-8.24-14.62-23.59,12.67-8,7,8.08,11.78,3.13,13-1.2,12-5.89,9.73-11.56s-6.1-12.29,1.37-17.7l1.59,2.49c4.33-4.1,1.75-8.92-1.78-14.3s-7.88-11.34-7.26-17.85a8.08,8.08,0,0,0,3.92-.09c-6.82-4.17-11.5-10.36-15-17s-6-13.8-8.18-19.86c10.37,3.23,5.68,5.31,15.87,2.34-1.78-5.48-16.43,2.59-20-8.26,5.32-3.94,9.65-12.25,20.57-14.1l1.29,10.47c13.88-6.34-1.37-13.6.65-19.29l6.27.24c-3.24-16-19-14.94-19.33-32.24l-4.54,2.2a20.31,20.31,0,0,1-4.37-2.67l-.32-.29-.14-.15-.07-.07,0,0h0c-.44,0,1-.1-1,.09h0a7.28,7.28,0,0,1-.93.07,12.73,12.73,0,0,1-1.55,0,6.47,6.47,0,0,1-2.77-.66c-.34-.18-.26-.26,0,.18a3.91,3.91,0,0,1,.45,1.18,6,6,0,0,1,.08,2,5.59,5.59,0,0,1-.35,1.35,4.34,4.34,0,0,1-1.39,1.79,7.51,7.51,0,0,1-.84.58c-.15.07-.39.23-.58.31l-.15.07h0l-8,3.86h0l.06,0,.14.08.53.32c1.43.87,2.9,1.78,4.39,2.74,6,3.81,12.08,8.21,15.82,12.54-6.64-.27-12.71-2.68-18.34-5.54-2.81-1.44-5.52-3-8.13-4.44l-1.94-1.06-.95-.52-.12-.06,0,0,16.57-8h0l.13-.06.25-.13a7.2,7.2,0,0,0,1.4-1,6.82,6.82,0,0,1-1.09.78l-.43.24-.23.12-.06,0h0l-19.28,9.27h0l0,0,.1.18c.28.46.56,1,.85,1.44a46,46,0,0,0,4.27,6c3.25,3.8,7.23,6.84,11.43,6.58-2.44-1.56-7.28-2.68-6.14-5.93,14.44,1.38,24.22,7.6,29.26,18.69-14.25,5.68-12.54,13.66-9.48,22.49.77,2.21,1.62,4.47,2.32,6.77l.53,1.79c.27.85.53,1.7.8,2.53.51,1.7,1,3.39,1.32,5.11,1.42,6.83,1.42,13.89-1.72,21.14a76.82,76.82,0,0,1,14.44,21c1.9,3.94,3.63,8.11,5.29,12.52s3.26,9,4.83,14S334.4,419,336,424.14c.85,2.63,1.69,5.27,2.55,7.93l2.66,8.13c1.82,5.5,3.75,11,5.82,16.36q1.54,4,3.19,7.88c1.1,2.56,2.24,5,3.39,7.6.29-6.86.65-11.69,1-15.05a33.39,33.39,0,0,1,1.11-6.44c.38-1.08.76-1.25,1.16-.92a8.44,8.44,0,0,1,1.28,2.16c.92,1.88,2,4.09,3.27,3s2.73-5.66,4.5-17a24.11,24.11,0,0,1,3.76,6.34,14.19,14.19,0,0,1,.88,5.59l.77,6.44.83,6.38Q373,469,374,475.62q1.94,13.29,4.32,27.45c.88,10.71-.22,11.72-1.72,11.38s-3.32-1.86-3.64,4.28a82,82,0,0,1,4.34,15.44c.38,2.26.63,4.4.8,6.49l.11,1.57c0,.51,0,1,.08,1.42,0,1.07.07,2,.1,2.85.23,7.67-.09,16.16,3.12,27-.3-10.37.93-16.3,2.77-17.9s4.38,1.11,7.17,7.95q-3.89-16.83-7-33.76c3.38-3.2,5.45-1.11,7.2,3.59.21.57.44,1.26.62,1.84s.36,1.21.53,1.86c.35,1.31.68,2.74,1,4.26.65,3,1.27,6.37,1.9,9.7,1.28,6.65,2.64,13.19,4.42,16.93.88,1.88,1.87,3.06,3,3.24a1.89,1.89,0,0,0,.85,0,.73.73,0,0,0,.41-.24l.37-.4a12,12,0,0,0,1.58-2.68l-1.25,6.78-.65,3.47-.83,3.26a3.06,3.06,0,0,1,.59-.37l.33-.13c.1-.05.18-.13.28-.18a3.89,3.89,0,0,1,1.23-.5,8.7,8.7,0,0,1,2.9-.07l3.3.43a6.4,6.4,0,0,0,3.23-.15,8.71,8.71,0,0,0,5-5c1.45-2.86,2-7.53,2.08-14.34.55,2.55,1.32,6.58,1.79,10.12s.64,6.65,0,7.57a5.85,5.85,0,0,0,3.3,2,4.55,4.55,0,0,0,1.56,0,6.3,6.3,0,0,0,1.27-.47c.83-.41,1.65-.93,2.46-1.38a8.91,8.91,0,0,1,3-1.14c1.56-.35,3.85-.69,6.61-1.26,1.37-.29,2.86-.64,4.38-1.12a21.77,21.77,0,0,0,4.28-1.75,10.89,10.89,0,0,0,2.64-1.93c.57-.56.78-1,1.08-1.25.58-.55,1.26-.52,2.11.37l1.21,7.56c.26-1.66-.11-5.63-.24-8.69s0-5.18,1.44-2.28c.74,3.4,1.5,8.4,2.06,8.26-.11-1.64-.16-6.26-.07-10.37s.44-7.71,1.8-6.29q.78,6.22,1.4,12c2.27.89,3.59-.43,4.59-4.6.9-4,1-10,.67-17-.23-3.81-.45-7.57-.67-11.35-.28-4-.56-8-.84-12.09s-.54-7.84-.69-11.4c-.08-1.78-.12-3.48-.13-5.08,0-.8,0-1.57,0-2.32s0-1.43.1-2.22c3.05,8.83,5.88,15.24,8.64,19.95s5.42,7.7,8,9.6a14.89,14.89,0,0,0,7.12,3c.27,0,.53.07.8.09l.39,0h.19a1,1,0,0,0,.16-.12c.44-.36.85-.73,1.25-1.11.8-.76,1.53-1.54,2.18-2.25l2.05,5.49a74.44,74.44,0,0,0,2.87-11.53c.37-2.08.67-4.24.92-6.45q.18-1.65.33-3.36a14.27,14.27,0,0,0,0-2.14c0-.79-.09-1.58-.13-2.36-.72-10.68-1.88-21.64-3.26-32.46-.69-5.41-1.43-10.8-2.21-16.12s-1.5-10.35-2.27-15.42c-1.51-9.66-3-19.38-4.58-29.37-.74-4.73-1.35-9.2-1.93-13.65s-1.09-8.75-1.51-13c2.4-.39,4.4-2,6.07-4.55a39.07,39.07,0,0,0,4.25-10.12,117.76,117.76,0,0,0,3-14.05c.82-5.18,1.46-10.79,2.2-16.47,1.42-11.43,2.53-23.56,4.35-35.26.45-2.94,1-5.83,1.51-8.72l.42-2.16.21-1,.17-.59c.24-.77.49-1.54.75-2.3a44.27,44.27,0,0,1,4-8.64c-3.54,3.14-13.6-1.92-14.94-6.15,4.1-4.95-10.64-16,5.34-13.48l-.51,1.87c16.21-2.33,13.18-13.64,14.61-22.1l-20.82-3.84c8.3-4.71,12.12-10.77,13.79-17.38a40,40,0,0,0,1-10.22c0-.86,0-1.74-.09-2.61l-.08-1.31v-.2L477.11,210H477l-.48-.06c-.32-.06-.69-.17-.91-.2a6,6,0,0,1-2-.83c-.25-.19-.1-.14.11.27a6.08,6.08,0,0,1,.56,2,9.76,9.76,0,0,1,0,2.7,10.82,10.82,0,0,1-.53,2.19,8,8,0,0,1-.55,1.22c-.3.51-.33.46-.24.38a1.48,1.48,0,0,1,.29-.2h0l-24.43,8.29a14.61,14.61,0,0,1,.14,2,13.07,13.07,0,0,1-.56,3.91,17,17,0,0,1-5.21,7.66c6.71,3.48,8.75,9.86,15.38,13.38l-10.88,3.17c1.8,15.13,2.63,22.63,10.58,39.51l-8.82-1.26c2.22,10.12,35,3.25,38.43,12.4L472.38,314a54.45,54.45,0,0,1,1.92,13.7c1.16,8,1.94,16.4,3.31,24.79a133.39,133.39,0,0,0,5.94,24.24c2.67,7.55,6.31,14.14,11.28,18.21-2.12,1.76-6.27,5.28-8.16.5.87,3.95,1.66,10.31,2.67,17.38.52,3.48,1,7.35,1.58,11s1.24,7.32,2,10.55c1.52,6.45,3.42,11.34,5.87,12.13s5.43-2.56,9.26-11.7a27.78,27.78,0,0,0-3.38,14.47,29.12,29.12,0,0,0,3.52,12.39,28.53,28.53,0,0,0,6.81,8.42,49.66,49.66,0,0,0,6.65,4.51q-3.75,9.16-7.55,18a66.18,66.18,0,0,0,7.32-7.71,53.17,53.17,0,0,1,4.93-5.5c1.39-1.23,2.61-1.75,3.84-1.43a4.61,4.61,0,0,1,1.88,1.12q.24.23.48.48c.09.08.16.21.26.24l.28.12a10.24,10.24,0,0,1,1.19.66,51,51,0,0,1-1.93,12.36c-1,3.55-2.09,4.94-2-.32.22,11.78,2.49,8,4.63,4.39,1.08-1.8,2.16-3.56,3-3.25s1.52,2.69,1.88,9.25q-2.43,5.88-5,11.61c.88,3.24,1.65,5.08,2.37,5.79a1.85,1.85,0,0,0,.27.2.84.84,0,0,0,.27,0,1.29,1.29,0,0,0,.53-.33,5.85,5.85,0,0,0,1.08-1.63c1.47-3,3.21-9,5.78-16.14,1.92-2.46,3,3.23,3.58,12.27.3,4.61.31,9.68.18,15.16s-.45,11.21-1,16.86a109.05,109.05,0,0,1,4.07-16.28c1.36-3.57,2.48-4.12,3,1-.61,8.3-1.83,11.6-2.47,13.26a35.59,35.59,0,0,0,1.61,7.24,4.25,4.25,0,0,0,1.58,2.48c1.09.6,2.21-.5,3.21-1.33s1.89-1.44,2.63-.15,1.17,4.3,1.55,10.51a108.17,108.17,0,0,0-.24,11.91c-.85-1.79-1.66-3.54-2.38-5.19s-1.58-3.4-2.17-4.82c-1.23-2.88-1.88-4.93-1.66-5.42-.93,9.77-.61,16.83-.63,24a111.43,111.43,0,0,1-.55,11.42,119.07,119.07,0,0,1-2.65,15c1.13-3.05,2.47-6.64,3.91-10.54.34-.88.69-1.78,1-2.7s.69-1.73,1-2.61c.59-1.73,1.18-3.31,1.75-4.65,1.13-2.69,2.17-4.4,3.07-4.65s1.7.95,2.26,3.83c0,1.65.08,3.26.06,5.67l-.34,1.27c.49,2.32,1.08,1.65,1.66.07.68,3.54,1.12,5.83,1.87,7.08,0,5.51.6,7.68,1.58,8.73s4.39,1.31,6.89,2.08a17.45,17.45,0,0,1,2.26-9.87,5.16,5.16,0,0,0,.41-3.33,28,28,0,0,0-2.46-6.17c.37.55.14.81-.55.84a7.76,7.76,0,0,1-3-.75c-.56,0-1.11-.23-1.42.26.07-.3.15-.63.24-.92a5.53,5.53,0,0,1-2.24-2.38l-1.62-3.14c.62-2.61,1.2-4.63,1.74-4.6.28,0,.49.51,1,1.63s1.11,2.85,2,5.25a97.33,97.33,0,0,1,6-15.56,35.56,35.56,0,0,0,6.41,11.75,40.66,40.66,0,0,0,3.61,3.66,20.54,20.54,0,0,1,2.44,2.6c2.66,3.23,5.17,6.95,6,12.29,2.22-3.06,4.49-6.36,6.8-9.63,1.15-1.66,2.31-3.32,3.43-5.13s2.14-4,3.13-6.21c4.06-8.66,6.8-21.49,6.26-42.47.6-3.94,1.44-2.61,2.42.4s2,7.55,2.87,9.67a48.7,48.7,0,0,1-1.16,6.54c-.2,1-.4,1.88-.54,2.94a25.46,25.46,0,0,0-.2,3.73,108.23,108.23,0,0,1,2.85-10.59c1.09-3.42,2.26-6.78,3.23-10.52.25-.9.44-2,.62-3s.35-2.15.49-3.27a71.09,71.09,0,0,0,.53-7.18,92.44,92.44,0,0,0-1.54-18,3.6,3.6,0,0,1,2.3,2.28c1.21,2.24,1.76,6.09,2.1,9.36.39,3.63.53,6.5,1.29,5.71.43-.51,1-2.46,2-6.5l1.12,10c2.65,1.41,4.83.63,6.53-1.74a10.93,10.93,0,0,0,1.17-2.11,28.33,28.33,0,0,0,.95-2.79,53.11,53.11,0,0,0,1.41-7c.37-2.61.63-5.46.82-8.49q.14-2.28.21-4.68c0-1.59,0-3.32,0-5,0-6.84-.27-14.08-.6-21.16-.35-6.77-.69-13.6-1-20.58a136.22,136.22,0,0,1,.07-16.92c.38-4.82,1.22-8.64,3-11.14a8.1,8.1,0,0,1,3.35-2.82A12,12,0,0,1,657,428c-2,.46-2.87.7-4.88-2.15a51.76,51.76,0,0,0,5.63-13.54A156.26,156.26,0,0,0,661.08,394c.76-6.63,1.18-13.67,1.53-20.62.19-3.46.26-7,.35-10.52l.24-10.44c.19-6.87.28-13.66.66-20.22s.92-13,1.86-19.36c.24-1.59.5-3.19.79-4.78l.46-2.4.12-.59.11-.45.22-.89a73.52,73.52,0,0,1,2.25-7.08,65.32,65.32,0,0,1,7.15-13.77c5.2-10.36-4.08-12.36-10.64-19.54L678.42,262l-12.89-12.44c-8.75-16.79,32-24.89,14.53-46.71l-8.34,1.87c2.18-7.09-2.74-23.31,6.47-21.27-1.41-.87-8.21-3.12-3.74-5.57l6.31.34-9.22-18.7c5.78-13.36,24.8,4.37,27.81-15.6-1.76-7.68-16.44-22.88-20.9-20.45-.58,3-4.61,7.35-10.94,7l-2.67-7.11c-18.44-2.88-37-9.82-51.42,5.79l10.31,12.68-9.33,3,.31-9.87c-9,4.82-1.79,9,3,13.43-4.87.51-8.36,1.85-10.35,4l16.71,13c-7.39.74-14-6.42-18.64.91,7.75,6.1,16.73-3.7,21.35,5.67-8.93,4.83-15.65,2.6-9,9.79-4.86.5-7.78-1.16-9.65-3.95,5.21,6.35,1,15.66,10.65,19.55-10.93,4.89,1,19.94-16.55,17.81,4,2.2,12.87,11.5,13.12,16.92-20.15-11.66-3,20-25.32,15.37,18.26,8.92,6.07,26.92,15.42,40.68-1.43-.85-4.35-2.53-3.29-3.57-2.21,7.08-8.09,8.68-12.07,13q1.46.22,2.76.54a16.9,16.9,0,0,0,2.51.57,40.46,40.46,0,0,1,4.36.87,26.27,26.27,0,0,1,6.73,2.72c3.88,2.25,6.94,5.29,11.47,8.82a24.64,24.64,0,0,1-9.33-2.12,77.73,77.73,0,0,1-6.91-3.58,62.71,62.71,0,0,0-6.82-3.35c-2.51-1-5.37-1.95-8.92-3a48.66,48.66,0,0,1,7.29,2.84,25.64,25.64,0,0,1,4.66,3.09c1.36,1.11,2.65,2.28,4.23,3.49a25.92,25.92,0,0,0,6,3.48c-2.3-.46-3.73-.83-4.78-1.1a21.75,21.75,0,0,1-2.48-.78c-1.54-.66-3.51-1.62-9.68-5.54,9.26,6.52,10,7.71,9.8,8.32a1.12,1.12,0,0,0,0,1.27c.4.8,1.51,2.22,4.25,5.31a29,29,0,0,1-6.5-4.35c-1.94-1.65-3.6-3.26-4.82-4.41s-2-1.87-2.12-1.81.36.87,1.66,3a111,111,0,0,1-7.92-9.15C583.29,300,581.7,298.24,581.7,298.24ZM574.11,422c0-.39,0-.66,0-.81a2.29,2.29,0,0,0,.61.46C574.63,421.69,574.46,421.72,574.11,422ZM572,411.2a38.39,38.39,0,0,0,.82,6.47c-.82,13.67-1.82,26.81-2,24.65.38-4,.55-8.7.69-13.94S571.72,417.4,572,411.2Zm-1.48,197.4c-1,.85-1.14-2.1-1.15-5.1A2.46,2.46,0,0,0,571,604l.21-1.41C571,604.93,570.74,607.09,570.49,608.6Z" transform="translate(-26.41)"/><path class="cls-2" d="M574.11,594.65c.35,0,.57-.42,1-.25-.47-1.25-.93-2.44-1.39-3.65-.3,1.08-.6,2.16-.84,3.24A9,9,0,0,0,574.11,594.65Z" transform="translate(-26.41)"/><path class="cls-2" d="M142.1,374.22l.23-.46a4.5,4.5,0,0,1-1.55,1A10.33,10.33,0,0,1,142.1,374.22Z" transform="translate(-26.41)"/><polygon class="cls-2" points="511.74 203.69 509.06 204.6 512.02 205.66 511.74 203.69"/><path class="cls-2" d="M109.8,494.32h0l10.52-.23h.94c.24,0,.51,0,.84.05s.56,0,.92.08c0,0-.34,0-.76-.06-.26,0-.57-.06-.91-.07h-1l-10.47.23Z" transform="translate(-26.41)"/><path class="cls-2" d="M133.2,464.07l2.61-8.2A30.37,30.37,0,0,0,133.2,464.07Z" transform="translate(-26.41)"/><path class="cls-2" d="M130.31,422.25a28.12,28.12,0,0,0-4.87.36s0,.06-.07.1Z" transform="translate(-26.41)"/><path class="cls-2" d="M274.06,435.66A3.63,3.63,0,0,0,275,437C278.09,439.78,276.58,437.7,274.06,435.66Z" transform="translate(-26.41)"/><path class="cls-2" d="M195.56,263.94a33.32,33.32,0,0,1,6.8,4.25C202.24,264.75,201.72,262.21,195.56,263.94Z" transform="translate(-26.41)"/><path class="cls-2" d="M237.38,534.3c.06,0,.09,0,.19,0a10.31,10.31,0,0,1,.07-1.24Z" transform="translate(-26.41)"/><path class="cls-2" d="M204.66,276.57a7.34,7.34,0,0,0-2.3-8.38C202.42,271,202.23,274.43,204.66,276.57Z" transform="translate(-26.41)"/><path class="cls-2" d="M71.2,254.24l-.45-2a5.06,5.06,0,0,1-1.72.6Z" transform="translate(-26.41)"/><path class="cls-2" d="M69,252.89l-2.15-1.33C67.32,252.44,67.78,253.17,69,252.89Z" transform="translate(-26.41)"/><path class="cls-2" d="M62.31,248.78l4.57,2.78C66.2,250.14,65.64,248.25,62.31,248.78Z" transform="translate(-26.41)"/><path class="cls-2" d="M89.45,305.06l4-1.08A12.84,12.84,0,0,0,89.45,305.06Z" transform="translate(-26.41)"/><path class="cls-2" d="M97.05,319.7c-.69-3.94,4.12-12.52-.43-16.57l-3.18.85c3.32-.07,2.26,3.74,1.37,7.59S93.15,319.32,97.05,319.7Z" transform="translate(-26.41)"/><path class="cls-2" d="M72.89,399.76l-.39-6.65c-.13-2.23-.26-4.46-.48-6.67-3.37,3.54-8,8.12-10.85,3-1.72,4.82-2.22,6.84-1.73,7.42s1.84-.28,3.55-1.23C66.41,393.71,71.17,391.42,72.89,399.76Z" transform="translate(-26.41)"/><path class="cls-2" d="M77.34,439.66c-3.62-6.14-6.12,1.54-8.61,1.73,2.47,1.61,3.91,2.64,5.15,2.53S76.12,442.56,77.34,439.66Z" transform="translate(-26.41)"/><path class="cls-2" d="M151.74,284.69l10.11,1.72C160.93,281.46,157.91,285.92,151.74,284.69Z" transform="translate(-26.41)"/><path class="cls-2" d="M117.7,213.64c-1.52.54-3,1.11-4.6,1.73s-3,1.24-4.54,1.91c2.27,2.46,4.65,4.81,7,7.09l.39-2.63c.14-.88.32-1.77.49-2.66C116.78,217.29,117.25,215.47,117.7,213.64Z" transform="translate(-26.41)"/><path class="cls-2" d="M152.3,229.1a.45.45,0,0,0,.14-.07l-.13.07-.2.08-.09,0-29.29,8.72.1.12.19.24,3.09,3.88-2-2.93-.51-.73-.25-.37-.13-.19-.06-.09,0,0h0L152,229.21h0A1.36,1.36,0,0,0,152.3,229.1Z" transform="translate(-26.41)"/><path class="cls-2" d="M338.4,480.54l-12.63,1.38C328,485.77,342.09,487,338.4,480.54Z" transform="translate(-26.41)"/><path class="cls-2" d="M318.12,260.71a14.73,14.73,0,0,0,3.95-2.78c.27-.27.53-.55.76-.83l.33-.43.16-.22.08-.11v0l-23.05,2.12h-.08a9.46,9.46,0,0,1-1.33.07,7.8,7.8,0,0,1-1.18,0,6.41,6.41,0,0,1-2.71-.68c-.3-.2-.1-.12.11.27-.23-.46-.48-.48,0-.19a7.44,7.44,0,0,0,3.08.64h1.17a6,6,0,0,0,.61,0l.3,0h0l17.84-1.65h0v.07l0,.1a9.48,9.48,0,0,0-.4,1.46A2.76,2.76,0,0,0,318.12,260.71Z" transform="translate(-26.41)"/><polygon class="cls-2" points="487.74 237.41 491.43 242.15 488.88 233.75 487.74 237.41"/></g><path class="cls-3" d="M843.21,222a88,88,0,0,1-9.67-.72c-1.84-.36-3.69-.71-5.19-2.12a8.38,8.38,0,0,1-1.48-6.7c0-6.16.85-12.11.44-18.37l-54-86c-.17-.27-.69-.09-1,0-4.47,1.33-7.49,2.52-11,5.52-11.49,10.25-12.23,26.83-11.86,42,.37,16.94,5.56,40.25,1.48,56.48-3.7,13.77-29.27,10.94-41.11,10.23-10.39-.35-20.75-1.76-31.12-.7C668.33,223,657.59,226.92,652,235c-6.67,9.52-5.54,21.88-1.11,32.11a29.28,29.28,0,0,0,6.3,9.54c10,9.88,26.29,8.12,40.37,7.06a198.31,198.31,0,0,1,45.57,1.76c4.45.36,9.62,1.76,11.86,5.3,1.85,2.82,1.48,6.36,1.11,9.18-.74,13.76-1.85,27.18-2.59,40.95-1.5,17.29-1.5,37.06,11.84,48.7,11.87,10.95,33.36,9.54,44.09-2.47,8.89-9.87,10-24,10.36-36.71.74-14.82,1.48-29.64,1.87-44.47.37-4.24.74-8.82,4.07-11.3,2.21-1.76,5.19-2.12,7.77-2.12,17.25-1.66,34.52.8,51.77-.18Z" transform="translate(-26.41)"/><path class="cls-4" d="M847,522.82c-25,24.7-133.08,83-240.77-8.58C498.23,423,573,290.28,656,190.81c78.2-94.32,60.37-166,58.31-173.89,2.74,4.46,26.06,39.1,61.39,94.66a32.92,32.92,0,0,0-12.35,6.52c-10.63,10-11.31,26.07-11,40.81.34,16.47,5.14,39.1,1.37,54.88-3.43,13.38-27.1,10.63-38.07,10-9.6-.35-19.21-1.72-28.81-.69-9.61,1.37-19.55,5.15-24.7,13-6.17,9.27-5.14,21.27-1,31.22a28.19,28.19,0,0,0,5.83,9.26c9.26,9.6,24.35,7.89,37.38,6.86a174.05,174.05,0,0,1,42.19,1.71c4.11.34,8.92,1.72,11,5.15,1.72,2.74,1.38,6.17,1,8.92-.68,13.37-1.71,26.4-2.4,39.78-1.37,16.81-1.37,36,11,47.33,11,10.63,30.87,9.26,40.81-2.4,8.23-9.6,9.26-23.32,9.61-35.67.68-14.4,1.37-28.81,1.71-43.21.34-4.12.69-8.58,3.77-11,2.06-1.72,4.81-2.06,7.21-2.06,16.8-1.71,33.61,1,50.41-.34a26.66,26.66,0,0,0,5.15-.69C952.34,424.38,870.37,499.15,847,522.82Z" transform="translate(-26.41)"/><path class="cls-4" d="M824.06,214.13A257,257,0,0,0,822.69,186c4.12,6.52,8.57,13.38,12.69,20.24,3.43,5.14,6.52,10.28,10,15.77.34.35.34.69.68,1a60.81,60.81,0,0,1-15.77-.34,8.65,8.65,0,0,1-4.81-2.06A8.48,8.48,0,0,1,824.06,214.13Z" transform="translate(-26.41)"/><path class="cls-5" d="M87.67,223.25q3.7-12.34,33.35-12.35,21,0,35.8,1.24,67.88,5,102.48,21t59.27,55.56q28.38,43.24,28.4,79,0,30.87-21,63-17.31,28.44-51.25,47.54t-66.07,19.15H191.39q-100,0-100-17.29,0-4.92,4.94-9.88t4.94-51.86q0-116-12.35-128.42-7.41-7.41-7.42-32.11Q81.49,238.1,87.67,223.25Zm154.35,63q-39.54-16-88.9-16.05-9.9,0-12.36,2.46c-1.66,1.66-2.46,7.84-2.46,18.53q0,32.13,6.78,86.43t11.74,66.67q8.63,17.31,48.15,17.3,25.93,0,37.67-5.56t33.94-27.78q29.66-33.35,29.65-50.63a32.33,32.33,0,0,0-1.24-9.88Q300,343,280.9,318.32T242,286.22Z" transform="translate(-26.41)"/><path class="cls-5" d="M377.82,310.92Q392.63,296.1,400,291.78t23.47-4.32c1.62,0,4.72.21,9.24.61s8,.62,10.5.62q39.53,2.49,54.33,15.43t23.46,50q7.41,30.87,7.41,58,0,96.3-93.84,98.79-37,0-59.27-22.23Q360.52,473.9,355,460.94t-6.8-42.6Q347,404.77,346.94,385,346.94,341.8,377.82,310.92Zm107.42,38.27q-11.1-22.21-37.05-23.45h-8.64q-25.92,0-38.28,16t-16,51.87A124.26,124.26,0,0,0,384,413.39q0,27.19,9.88,38.29t34.57,11.1a59.82,59.82,0,0,0,7.42-.62,72.46,72.46,0,0,1,8.64-.6q38.26-3.72,46.93-16.06,7.38-9.87,7.4-32.11A152.54,152.54,0,0,0,485.24,349.19Z" transform="translate(-26.41)"/><path class="cls-5" d="M587.7,307.22q24.66-13.59,45.68-13.59,42,0,65.44,45.69l14.82,28.39-14.82,13.58q-16.07,13.62-70.38,23.46-54.36,8.67-54.32,21,0,6.19,12.34,21,18.51,23.46,58,23.46,17.28,0,38.28-6.18,28.4-9.87,34.57-7.4c.8.82,1.24,2.46,1.24,4.94q0,8.64-13,20.36a107.88,107.88,0,0,1-30.27,19.15,105.33,105.33,0,0,1-39.5,7.4q-39.54,0-74.09-32.11-30.88-29.61-30.87-61.73a96.82,96.82,0,0,1,4.94-30.86q11.1-35.81,21.61-51.25T587.7,307.22Zm61.73,27.16a35.3,35.3,0,0,0-16-3.72q-17.29,0-40.74,21-7.41,7.41-7.42,13.59,0,7.41,12.34,7.4c4.94,0,8.66-.4,11.12-1.24q11.1-4.91,32.11-8.64,19.74-3.69,19.76-16C660.55,341.78,656.83,337.68,649.43,334.38Z" transform="translate(-26.41)"/><path class="cls-6" d="M89.31,216.08s13-8,38-8c0,0,15-23,40-11l-7,2,10,6s4,3,6-6,11,6,12,8-9,0-5,4,42,7,54,11c0,0,29-43,78-26s46,60,46,60,13,46,18,47,12-14,20-14c0,0,1-13,4-19l8,3a33.43,33.43,0,0,1,6-31l-9-3s-9-6,6-7l9,3a52.26,52.26,0,0,1-8-24s-12,1,8-6c0,0,17-60,81-31,0,0,1-16-19-17,0,0,29,5,33,11s0,26,0,26l7,6,15,4-14,5s10,5,17,7-9,39-9,39,12.11-1.87,13,15.09c0,.61,0,1.25,0,1.91v-2s-2,10,10,10c0,0-7,9-5,18s2,26,5,28,14-14,18-14,15-38,25-46c0,0-2-16-8-17s3,1,8-4,2-22,15-13c0,0-7-15-13-17s9,3,11-4-5-8,5-13c0,0-10-9-9-17s-3,2,9,1c0,0-14-4,8-10a8.4,8.4,0,0,0-10-4c-7,2-25-8,1-4h6l-15-11s5-5,9-5c0,0-11-8-8-9a14.09,14.09,0,0,0,5-3v7l10-2-10-11s10-18,50-8l3,6s6,5,12-6c0,0,16,9,15,11s32-85,20-116c0,0,61.77,94.66,61.05,94.72-26.05,2.28-23.05,47.28-20.05,83.28,1.47,17.6-4,33-28,29-16.06-2.68-63-5-67,15-.48,2.4-10,40,31,45,13.73,1.67,44.58.24,58,2,11.05,1.44,8,10,9,27,.61,10.42-5.06,55.94,2,63,0,0,36,48,56-11,5.85-17.25-5.19-55.68,4-67,10.3-12.69,37.7-8,38-8,34,4,26.26-1.52,27,2,4,19,47,79,14,157s-98,112-139,115-97-6-131-33l-7,34s.5-25.5-3.5-25.5c0,0,1,47-20,65,0,0-8-15-14-19s-4-9-5-10-6,15-6,15l4,5s5,5,0,15v3s-11,2-9-10l-2-6-2-2,1-2s0-15-5-4-8,20-8,20l3-48,7,12-1-19s0-5-5,0-4-11-4-11,4-27-2-10l-3,11s2-59-4-38l-5,14h-2l-3-5,5-12s2-17-5-6c0,0-4,7-3-2l3-15s-4-6-8-1l-11,13,7-17-4-3s-12,18-18,20c0,0,4,24,3,27s-4,19-4,19l-2-4-4,3s-15.59-3-23.69-29a.12.12,0,0,0-.24,0c.52,7.71,3.44,57.35-2.07,62h-2s-1-18-3-10v15s-4-15-4-6l1,9s-2-13-5-7-19,6-19,6-3,6-11,2c0,0,1-14-1-16,0,0,2,15-10,18a8.22,8.22,0,0,0-9,0l2-13s-2,6-5,0c0,0-6-19-9-33,0,0-3-11-7-6l7,33s-7-13-9-5c0,0-2,13-1,16,0,0-6-21-3-25,0,0-2-24-6-28,0,0-1-9,4-6,0,0,2-16,0-22l-12-13s-2,3-2,13c0,0-1-12-1-15l-7-13-1,7s-15-35-19-51c0,0-11,19-13,21,0,0,4,26,5,27,0,0-11,3-9,20s-3,31-10,34a8.77,8.77,0,0,1,9,5l-1,1s-3,3,10,8h1v4s0-4-1-3-4,0,0,8,4,8,3,10c0,0,5,1,2,9,0,0-4-7-11-6s-9-3-9-3l6,9-3,1s15,13,15,16,4,15-10,30-42,8-44,4c0,0-13,13-33-9,0,0-9-12-11-16l-2,1-1,5v-5l3-3s7-8,12-9c0,0-4-7-3-10s-4-5-6-5l-2,7s-6-19-12-22-11-18-7-19,22-7,22-7,3-6-2-10-10-9-5-14c0,0-6,6-12,0a17.16,17.16,0,0,0,4,6c3,3,5,9,5,9l-17-9,12,17s-13-7-17,1c0,0-8-4-2-14,0,0,2-8-3-10s-35,1-51-1c0,0-2,17-18,21,0,0-11,5-12,6,0,0-26-6-24-39,0,0-10-6,2-18,0,0-3-17-5-16s-14,1-14,1l-3-1,7-3h2s-1-5,4-14c0,0,0-8-8-7l4-5s7,4,10,3,1-9-3-10-6-8,4-10c0,0-2-3-5-2s-4,6-8,5c0,0,7-4,8-9,0,0-9-17-3-21s-6,0-7,2-6-1-6-1,5-4,4-6l-11,2,23-19a13.87,13.87,0,0,0-15,0s-8,5-15-5c0,0,7-1,2-7,0,0-12-5-11-17,0,0,2,2,4,2s5-2,7-2-11-6-11-6h5s6-3-1-8c0,0-2-3-1-5,0,0,10,2,16-6l-16-4,15-3s-8-11-17-13,1-15,2-15,4,3,4,3,18-17-7-10v-11s-13,2-16,1,7-3,7-3-21-10-6-19c0,0,2-6,8,3,0,0-10,7-5,10s9-2,15,1,9,0,9,0l19-4S84.81,217.58,89.31,216.08Z" transform="translate(-26.41)"/><path class="cls-7" d="M61.31,390.08s4,4,11-3v12s-1-6-9-4C63.31,395.08,53.31,401.08,61.31,390.08Z" transform="translate(-26.41)"/><path class="cls-7" d="M69.31,441.08s6-7,7-2C76.31,439.08,76.31,450.08,69.31,441.08Z" transform="translate(-26.41)"/><path class="cls-7" d="M34.31,222.08l13-4-6-4S32.31,215.08,34.31,222.08Z" transform="translate(-26.41)"/><path class="cls-7" d="M326.31,482.08l12-2S340.31,491.08,326.31,482.08Z" transform="translate(-26.41)"/><path class="cls-6" d="M212.31,458.08c-2-3-9-4-9-4v4c-14-6-8-13-8-13-4-4-18,0-18,0,1-6,10-7,10-7-4-7-9-5-9-5-20-3-11-11-11-11,2,2,4,1,4,0s-1-7-1-7c1,3,7,2,7,2,10-8,8,3,10,3s4-5,4-5c-6-14-1-8-3-12s-10-1-10-1c-14,6-16,3-13,1a4.45,4.45,0,0,0,2-5l-8,5-4-8,5,2c8-18,0-27,0-27,13,6,16-4,16-4a6.3,6.3,0,0,1-4-7c9-2,10-5,10-6s-4-5-4-5c-17-2-10-6-11-11s-8,4-8,4c1-3-2-12-2-12a59.94,59.94,0,0,1-3-17c-3,5-11,2-9,2s5-4,5-4l1-15h-4s1-2,5-3,8,6,8,6l-3-2c-7,10,14,2,14,2,8-9,4-12,4-12-15-8-14,0-14,0h-7a7.58,7.58,0,0,0,.05-1.49c-.45-6.64-10.05-7.51-10.05-7.51l2,9,1,1s-7-2-7,0" transform="translate(-26.41)"/><path class="cls-6" d="M141.31,302.08s1,19,4,20h-3" transform="translate(-26.41)"/><path class="cls-6" d="M147.31,373.08s4,0,6,9,4,10,4,10l-7,3" transform="translate(-26.41)"/><path class="cls-6" d="M150.31,397.08s5-1,6,3,5,6,5,6-5,4-9,4" transform="translate(-26.41)"/><polyline class="cls-6" points="126.9 420.08 135.9 419.08 127.9 424.08"/><path class="cls-6" d="M191.31,276.08v5s-3,5,5,4,11,1,11,1l3-7" transform="translate(-26.41)"/><path class="cls-6" d="M212.31,280.08l6,10-8-4s1,8,5,12,8,8,8,9l6-4,7,8s-7,3-7,8-7,6-10,6,4,20,11,25,15,17,15,17l-6,1s4,12,6,12c0,0-2-53-3-56s-8-21-8-21l13,4s9-10-1-13-16-4-21-11" transform="translate(-26.41)"/><path class="cls-6" d="M400.31,348.08s11,74,14,46l8,28-16-82,11,35L408.53,338a.17.17,0,0,1,.31-.13l7.47,11.21-4-13" transform="translate(-26.41)"/><path class="cls-6" d="M486.31,394.08l5-3,3,4-4,3S487.31,398.08,486.31,394.08Z" transform="translate(-26.41)"/><path class="cls-6" d="M682.31,154.08s-8-1-11,5l3,7" transform="translate(-26.41)"/><path class="cls-6" d="M97.31,341.08s-29-15-35-19c0,0,7-5,14-3,0,0,4-6-4-17a7.89,7.89,0,0,1,5-7l-10-4a4.33,4.33,0,0,1-2-4c0-3,1,0,1,0l13-1-20-13s0-6,15-1l-8-10-4-4-12-2,2-6,10.32-6.88" transform="translate(-26.41)"/><path class="cls-6" d="M822.31,186.08l24,37H833.42s-11.63,1.92-9.37-12Z" transform="translate(-26.41)"/></g></g></svg>